<svg id="visual" viewBox="0 0 900 600" width="900" height="600" xmlns="http://www.w3.org/2000/svg" xmlns:xlink="http://www.w3.org/1999/xlink" version="1.1"><rect x="0" y="0" width="900" height="600" fill="#ffffff"></rect><defs><linearGradient id="grad1_0" x1="33.3%" y1="0%" x2="100%" y2="100%"><stop offset="20%" stop-color="#ffffff" stop-opacity="1"></stop><stop offset="80%" stop-color="#ffffff" stop-opacity="1"></stop></linearGradient></defs><defs><linearGradient id="grad2_0" x1="0%" y1="0%" x2="66.7%" y2="100%"><stop offset="20%" stop-color="#ffffff" stop-opacity="1"></stop><stop offset="80%" stop-color="#ffffff" stop-opacity="1"></stop></linearGradient></defs><g transform="translate(900, 0)"><path d="M0 486.7C-52 442.5 -104.1 398.3 -153.1 369.6C-202.1 340.8 -248.1 327.5 -301.9 301.9C-355.8 276.4 -417.6 238.6 -449.7 186.3C-481.8 133.9 -484.3 67 -486.7 0L0 0Z" fill="#FBAE3C"></path></g><g transform="translate(0, 600)"><path d="M0 -486.7C51.7 -451.6 103.4 -416.4 164.9 -398.2C226.5 -380 297.8 -378.8 344.2 -344.2C390.5 -309.6 411.9 -241.6 431.5 -178.7C451 -115.8 468.9 -57.9 486.7 0L0 0Z" fill="#FBAE3C"></path></g></svg>