<svg version="1.1" id="Layer_1" xmlns="http://www.w3.org/2000/svg" xmlns:xlink="http://www.w3.org/1999/xlink" x="0px" y="0px"
	 width="100%" viewBox="0 0 4689 5612" enable-background="new 0 0 4689 5612" xml:space="preserve">
<path fill="#F9C420" opacity="1.000000" stroke="none" 
	d="
M4.000000,3428.000000 
	C4.000000,2286.827881 4.000000,1145.655640 4.000000,4.241740 
	C1567.617920,4.241740 3131.236084,4.241740 4696.000000,4.241740 
	C4696.000000,1144.123413 4696.000000,2284.247314 4694.155273,3426.192871 
	C4316.175293,3428.018066 3940.041016,3428.030518 3563.906494,3427.977539 
	C3553.942383,3427.976074 3543.978271,3427.262451 3534.952637,3425.837402 
	C3540.464111,3422.062012 3544.937988,3419.146484 3549.624268,3416.625488 
	C3614.250977,3381.859863 3676.433838,3343.223145 3735.753174,3299.970703 
	C3797.300781,3255.093506 3854.753174,3205.697754 3905.527100,3148.718262 
	C3956.020264,3092.054688 3997.737061,3029.878662 4026.513428,2959.348145 
	C4046.787109,2909.657715 4059.382812,2858.264160 4064.703613,2804.763184 
	C4068.212891,2769.472900 4067.389404,2734.229492 4068.092041,2698.945312 
	C4068.811035,2662.854248 4065.750000,2627.092041 4060.294678,2591.456787 
	C4050.639160,2528.381348 4031.358398,2468.224609 4003.470947,2411.051514 
	C3973.700928,2350.018311 3933.332031,2296.236816 3884.559814,2249.108887 
	C3830.516113,2196.887207 3768.978271,2154.882568 3702.284424,2120.477539 
	C3627.971680,2082.142578 3549.861816,2053.618652 3469.250000,2031.763062 
	C3386.807617,2009.410767 3303.028076,1994.134399 3218.321045,1983.325684 
	C3140.245605,1973.363159 3061.828125,1967.950073 2983.264893,1965.337646 
	C2918.684814,1963.189941 2854.001709,1962.736084 2789.416260,1966.433594 
	C2735.549316,1969.517700 2681.711182,1973.105103 2627.865479,1976.552246 
	C2622.554688,1976.892090 2617.261963,1977.687012 2611.995361,1978.494995 
	C2607.327148,1979.211304 2602.707031,1980.240234 2593.566895,1981.994629 
	C2620.644531,1989.210449 2643.117676,1995.065918 2665.517334,2001.191040 
	C2775.577637,2031.287231 2883.414307,2067.647705 2986.911621,2116.081299 
	C3059.501221,2150.051270 3128.909912,2189.343018 3192.787354,2238.140381 
	C3240.705078,2274.745605 3283.850586,2315.918213 3320.712646,2363.764893 
	C3349.849854,2401.584961 3372.428467,2442.858398 3388.845215,2487.557617 
	C3418.442871,2568.146484 3420.990723,2650.236084 3401.509277,2733.335693 
	C3381.298828,2819.545166 3341.927246,2897.028320 3292.234863,2969.579346 
	C3257.905273,3019.700439 3218.972168,3066.184570 3177.125732,3110.173096 
	C3117.308350,3173.051758 3052.218262,3230.082764 2983.688965,3283.262939 
	C2933.120117,3322.504883 2880.663086,3359.088135 2827.209961,3394.232910 
	C2806.678711,3407.731689 2785.250977,3419.866455 2762.897949,3431.597900 
	C2753.371826,3426.397949 2744.541748,3428.095215 2735.991455,3428.093262 
	C2365.992676,3428.009033 1995.993774,3428.025635 1625.994873,3428.022705 
	C1085.329956,3428.018311 544.664978,3428.008057 4.000000,3428.000000 
M3810.077637,494.900970 
	C3806.726318,495.403717 3803.375000,495.906464 3796.666504,496.269836 
	C3784.443604,497.518463 3772.220459,498.767120 3758.469727,499.304260 
	C3756.352051,499.726837 3754.234619,500.149384 3748.669189,500.512177 
	C3738.054199,501.504303 3727.434326,502.447479 3716.824951,503.496460 
	C3643.895752,510.707062 3570.897949,517.300232 3498.060791,525.346130 
	C3425.883545,533.319031 3353.782959,542.119934 3281.803711,551.718689 
	C3182.740234,564.929260 3083.632324,578.013000 2984.894287,593.402527 
	C2882.872314,609.303894 2781.087646,626.903809 2679.531006,645.567383 
	C2549.140137,669.529846 2419.449707,697.006287 2290.533447,728.064270 
	C2153.176758,761.155640 2016.902954,798.102478 1882.416748,841.491821 
	C1758.056274,881.614258 1635.628906,926.808472 1516.517212,980.750549 
	C1413.148071,1027.563232 1313.068115,1080.320557 1219.294556,1144.504028 
	C1159.218140,1185.623535 1102.453247,1230.801392 1051.779907,1283.281372 
	C1006.209351,1330.476807 966.254089,1381.736572 935.634399,1440.141724 
	C906.840088,1495.064819 887.311523,1552.720581 880.672729,1614.436401 
	C872.877014,1686.908203 872.480286,1759.221313 883.059937,1831.673218 
	C893.619141,1903.984985 918.029175,1971.172119 954.276978,2034.018066 
	C986.833435,2090.463867 1029.147705,2139.255859 1078.699585,2181.571289 
	C1132.751831,2227.729492 1192.764038,2264.721680 1256.831787,2295.203857 
	C1331.109009,2330.544189 1408.751465,2356.417725 1488.414551,2376.437500 
	C1560.219116,2394.482422 1632.950562,2407.427490 1706.378662,2416.916504 
	C1777.150757,2426.062744 1848.167603,2432.266357 1919.426392,2434.734131 
	C1976.025513,2436.693848 2032.708496,2436.850830 2089.352295,2436.749756 
	C2172.030518,2436.602295 2254.495361,2431.614258 2336.754883,2423.327148 
	C2338.332520,2423.168457 2339.812012,2422.038574 2344.048340,2420.158936 
	C2338.727295,2418.097412 2336.025635,2416.702393 2333.154785,2415.989990 
	C2275.596924,2401.706787 2218.389160,2386.162598 2161.845459,2368.255859 
	C2058.109863,2335.404053 1957.032959,2296.122070 1861.428711,2243.648926 
	C1802.244751,2211.165283 1746.154419,2174.187500 1695.734741,2129.067139 
	C1651.805542,2089.754883 1613.345215,2046.064453 1583.434692,1994.739014 
	C1531.596802,1905.787109 1519.151611,1810.988037 1538.579468,1711.175171 
	C1551.464111,1644.979126 1579.141113,1584.427002 1613.466431,1526.928345 
	C1645.667969,1472.987183 1683.987183,1423.385254 1726.220093,1376.950195 
	C1778.771240,1319.170410 1835.977173,1266.214722 1896.756958,1217.205811 
	C1955.942261,1169.482422 2017.750977,1125.332153 2081.606689,1084.056396 
	C2154.972412,1036.633789 2230.548096,992.954834 2307.991455,952.620667 
	C2404.938965,902.128296 2504.104736,856.305420 2605.313721,814.948669 
	C2686.741455,781.675171 2769.091064,750.893188 2852.415771,722.695801 
	C2967.318115,683.812561 3083.548828,649.436218 3201.131104,619.649780 
	C3305.124023,593.305725 3409.681641,569.421387 3515.330322,550.686707 
	C3585.501709,538.243225 3655.879150,526.954468 3726.197998,515.353149 
	C3750.506836,511.342682 3774.916992,507.948517 3801.867188,504.926819 
	C3805.334229,504.311371 3808.801270,503.695923 3815.248291,503.095612 
	C3822.137451,501.992676 3829.026367,500.889709 3839.455078,500.205444 
	C3870.980225,497.943207 3871.106934,497.916840 3880.880371,490.788574 
	C3864.677979,488.714752 3850.177490,491.218750 3832.697998,493.063446 
	C3825.808838,493.909393 3818.919434,494.755310 3810.077637,494.900970 
M3912.438965,486.963867 
	C3905.145752,487.902313 3897.295654,485.727509 3888.308594,491.253571 
	C3899.022461,494.081543 3907.404541,492.402466 3919.304443,491.805115 
	C3946.054199,488.774750 3972.804199,485.744385 3999.553955,482.714050 
	C3989.197021,481.209839 3978.870117,480.401611 3968.717529,481.388885 
	C3951.084473,483.103699 3933.110352,481.841187 3912.438965,486.963867 
z"/>
<path fill="#717170" opacity="1.000000" stroke="none" 
	d="
M4696.000000,3456.000000 
	C4696.000000,4175.867188 4696.000000,4895.733887 4696.000000,5615.800781 
	C3132.421875,5615.800781 1568.843750,5615.800781 4.000000,5615.800781 
	C4.000000,4897.221680 4.000000,4178.442871 5.874624,3457.826660 
	C900.336914,3455.986572 1792.924561,3455.983154 2685.512207,3455.984619 
	C2691.511475,3455.984619 2697.591553,3455.461670 2703.482910,3456.276123 
	C2707.873291,3456.883301 2712.019287,3459.259033 2715.470947,3461.913086 
	C2709.556885,3466.101562 2704.521729,3469.356689 2699.323242,3472.326416 
	C2631.054443,3511.324219 2561.566650,3547.960449 2490.734619,3582.138916 
	C2329.077637,3660.144043 2162.451416,3725.629639 1991.947388,3781.395996 
	C1861.467285,3824.071777 1729.239990,3860.543213 1595.486450,3891.468750 
	C1485.133667,3916.983887 1374.088135,3938.993164 1262.186157,3956.541016 
	C1209.543823,3964.795898 1156.786011,3972.314209 1102.290894,3979.887695 
	C1060.679688,3982.306641 1035.081909,3986.431396 1025.853149,3991.637695 
	C1042.167236,3993.884521 1076.045776,3991.867432 1105.962646,3986.947510 
	C1124.780151,3985.463379 1142.060425,3984.214111 1159.292236,3982.481934 
	C1231.536987,3975.219238 1303.800415,3968.121826 1375.992432,3960.362793 
	C1438.247559,3953.671875 1500.492676,3946.776123 1562.601196,3938.863770 
	C1636.604492,3929.436279 1710.543579,3919.414795 1784.352661,3908.575684 
	C1866.067383,3896.575439 1947.717651,3884.045410 2029.188965,3870.501465 
	C2133.007568,3853.242188 2236.435791,3833.796143 2339.562988,3812.712158 
	C2509.295166,3778.010742 2677.792480,3738.262207 2844.421631,3690.784180 
	C2987.983643,3649.878418 3129.880615,3603.895752 3268.232178,3547.639648 
	C3320.651123,3526.324951 3372.133545,3502.700684 3423.972656,3479.969238 
	C3442.240723,3471.958740 3460.300293,3463.472412 3480.419922,3455.371094 
	C3492.379150,3455.676514 3502.373291,3455.933105 3512.367432,3455.934082 
	C3906.911621,3455.970459 4301.455566,3455.983887 4696.000000,3456.000000 
M987.468201,3995.902100 
	C997.113586,3995.203125 1006.760132,3994.518799 1016.398132,3993.729980 
	C1016.676270,3993.707031 1016.863647,3992.575684 1017.093262,3991.960938 
	C1016.611877,3991.542236 1016.106384,3990.733887 1015.652649,3990.761963 
	C1005.268555,3991.405029 994.890015,3992.139404 980.989502,3992.326416 
	C958.596863,3992.988037 944.996948,3995.411377 934.734375,4001.223877 
	C947.991150,4000.678223 959.580750,4000.241943 971.164978,3999.692871 
	C973.765930,3999.569824 976.422729,3999.321289 978.914062,3998.628174 
	C980.728210,3998.123291 982.312744,3996.792725 987.468201,3995.902100 
M1444.541504,4609.635254 
	C1441.593628,4604.420898 1439.026978,4598.944336 1435.640137,4594.032227 
	C1390.923340,4529.182617 1329.666138,4498.777832 1250.789795,4507.145508 
	C1147.990356,4518.051270 1064.000366,4617.906738 1087.164917,4735.207520 
	C1101.171875,4806.135742 1161.521606,4878.456055 1258.587280,4887.239746 
	C1342.717285,4894.853516 1422.548706,4844.605957 1452.578491,4765.436035 
	C1472.219849,4713.654297 1469.750000,4662.392578 1444.541504,4609.635254 
M3979.840820,4813.850098 
	C3983.295166,4808.949219 3986.973877,4804.189453 3990.168457,4799.124512 
	C4014.152588,4761.095703 4024.140381,4719.503418 4018.871826,4674.989746 
	C4007.475098,4578.706055 3929.026367,4507.675781 3831.763672,4505.255371 
	C3797.792480,4504.410156 3763.782471,4505.043457 3729.790771,4505.184082 
	C3726.016602,4505.199219 3722.246826,4506.414551 3717.289795,4507.280762 
	C3717.131348,4515.331055 3716.867188,4522.545410 3716.865479,4529.760254 
	C3716.838867,4641.068359 3716.846436,4752.376465 3716.848145,4863.684570 
	C3716.848145,4867.683594 3716.558105,4871.715820 3716.974365,4875.672363 
	C3717.369629,4879.432129 3718.514648,4883.113770 3719.325195,4886.808105 
	C3722.936279,4887.214844 3725.565918,4887.767090 3728.196045,4887.768555 
	C3764.187500,4887.791504 3800.178955,4887.809570 3836.169922,4887.631348 
	C3842.139648,4887.602051 3848.142578,4886.896973 3854.066162,4886.053223 
	C3904.492188,4878.871582 3945.798096,4855.464844 3979.840820,4813.850098 
M3398.250977,4639.795898 
	C3370.642822,4612.775391 3343.088135,4585.699707 3315.405762,4558.755371 
	C3298.713867,4542.508301 3281.827148,4526.462402 3265.003662,4510.351562 
	C3264.560791,4509.927246 3263.840088,4509.588867 3263.245605,4509.583008 
	C3262.630859,4509.577148 3262.011719,4510.026855 3259.990967,4510.846680 
	C3259.795410,4517.277344 3259.394531,4524.380859 3259.390869,4531.484863 
	C3259.346680,4616.072754 3259.361816,4700.660645 3259.361328,4785.248535 
	C3259.361328,4813.888672 3259.278076,4842.529297 3259.436035,4871.168457 
	C3259.464111,4876.232910 3260.496094,4881.291992 3261.136230,4886.994141 
	C3282.098145,4887.953613 3301.721680,4888.904297 3322.631836,4886.316406 
	C3322.907227,4878.064941 3323.347900,4870.882812 3323.354736,4863.700195 
	C3323.416016,4801.091797 3323.339355,4738.483398 3323.526611,4675.875488 
	C3323.541016,4671.056641 3321.316650,4665.253906 3327.363281,4661.045898 
	C3330.389648,4663.649414 3333.486328,4666.058594 3336.290527,4668.770508 
	C3347.781738,4679.882324 3359.187744,4691.081543 3370.618408,4702.255859 
	C3430.153809,4760.453613 3489.660889,4818.681152 3549.300293,4876.772461 
	C3552.290771,4879.685547 3554.223877,4885.138184 3561.154053,4883.237305 
	C3561.468750,4881.006348 3562.131836,4878.515137 3562.127197,4876.024902 
	C3561.900879,4754.165039 3561.622314,4632.305664 3561.257080,4510.446289 
	C3561.253906,4509.317383 3560.014648,4508.192383 3559.350586,4507.066895 
	C3542.664307,4504.182617 3515.734863,4504.294434 3500.275146,4507.355469 
	C3496.396240,4513.336426 3498.012207,4520.182129 3497.985352,4526.684570 
	C3497.833984,4563.316406 3497.915771,4599.949219 3497.911621,4636.582031 
	C3497.908691,4663.890137 3497.977051,4691.198242 3497.803955,4718.505371 
	C3497.776855,4722.773438 3499.464844,4727.918457 3494.275391,4730.769531 
	C3492.903564,4730.301758 3491.403320,4730.232910 3490.594238,4729.449707 
	C3460.449219,4700.267578 3430.367432,4671.020020 3398.250977,4639.795898 
M2910.119873,4579.762695 
	C2870.743896,4673.729004 2831.365967,4767.695312 2791.994873,4861.663574 
	C2789.679199,4867.190918 2787.376465,4872.724121 2785.154053,4878.289551 
	C2784.668945,4879.504395 2784.489746,4880.857910 2784.298584,4882.166504 
	C2784.208252,4882.784668 2784.363770,4883.461914 2784.514160,4884.086426 
	C2784.669189,4884.730469 2784.953125,4885.342773 2785.180664,4885.969238 
	C2802.550781,4888.564453 2834.997070,4888.403809 2850.556885,4885.586914 
	C2861.158691,4866.046387 2866.760010,4843.864746 2877.912842,4825.226562 
	C2909.289307,4823.004395 2991.968750,4823.683594 3007.285156,4826.239258 
	C3018.176514,4845.572266 3023.456787,4867.913574 3035.264648,4887.616699 
	C3057.124023,4887.354004 3078.180420,4888.932617 3100.807861,4886.395508 
	C3098.922119,4880.199219 3097.832275,4875.109375 3095.867188,4870.382812 
	C3046.786377,4752.326660 2997.625977,4634.304199 2948.390625,4516.312500 
	C2947.000732,4512.981934 2944.636230,4510.058105 2941.521240,4504.979980 
	C2930.855957,4530.398926 2921.089600,4553.675293 2910.119873,4579.762695 
M928.015442,4770.853516 
	C922.943787,4723.779785 897.890625,4692.355957 853.691162,4675.900879 
	C835.589844,4669.161621 817.493835,4662.407715 799.431641,4655.564453 
	C794.456787,4653.678711 789.400146,4651.838867 784.747375,4649.305664 
	C768.488037,4640.452637 760.565979,4624.273926 763.039185,4605.762695 
	C765.326538,4588.642578 777.150330,4575.318848 794.493164,4571.001465 
	C806.959656,4567.898926 819.568115,4568.170410 832.110046,4570.932617 
	C840.170898,4572.707520 846.846924,4576.862793 852.574158,4582.735352 
	C855.688965,4585.929688 858.998535,4588.933594 862.214417,4592.017578 
	C872.141846,4587.205078 881.260498,4583.111816 890.062500,4578.424316 
	C898.661194,4573.845215 908.432312,4571.093750 916.522034,4563.298828 
	C900.177795,4533.411621 876.458130,4514.843262 843.998718,4507.863770 
	C824.923706,4503.761719 805.620117,4503.787109 786.381470,4507.181152 
	C720.149719,4518.865723 681.129944,4587.431641 705.317505,4650.139160 
	C716.720276,4679.701660 737.716614,4700.187988 767.185669,4711.729980 
	C787.649719,4719.745117 808.321838,4727.228027 828.862488,4735.050293 
	C833.829895,4736.942383 839.022766,4738.641602 843.457336,4741.459473 
	C857.457336,4750.357422 864.603821,4763.242676 864.072510,4780.031738 
	C863.542786,4796.772461 856.123291,4809.733887 841.129456,4817.102539 
	C824.800354,4825.126953 807.301880,4824.246582 790.361755,4819.393066 
	C776.605835,4815.452637 768.629822,4804.668945 763.465515,4791.699707 
	C763.041748,4790.635742 761.685364,4789.942383 759.529724,4787.921875 
	C740.731445,4791.025391 720.524902,4792.780762 701.252319,4799.113281 
	C708.719543,4842.955566 742.145935,4876.724121 784.455566,4884.171875 
	C801.638367,4887.196777 818.927917,4887.579102 836.207825,4884.953125 
	C875.643005,4878.961914 903.243774,4857.221191 919.670837,4821.237305 
	C926.408142,4806.479004 928.950256,4790.702637 928.015442,4770.853516 
M1734.000244,4505.057129 
	C1702.012939,4505.057129 1670.025391,4504.987793 1638.038818,4505.128906 
	C1632.923462,4505.151367 1627.812378,4506.122070 1621.623413,4506.766602 
	C1621.330322,4514.403320 1620.871460,4520.936523 1620.862549,4527.470703 
	C1620.801880,4572.119629 1620.837769,4616.768066 1620.838745,4661.416992 
	C1620.840210,4729.389648 1620.768677,4797.362793 1620.943481,4865.334961 
	C1620.961548,4872.403809 1618.825073,4880.025391 1623.801147,4886.369141 
	C1646.477417,4889.031738 1669.826782,4888.489258 1684.232422,4884.727539 
	C1684.436401,4878.521973 1684.828491,4871.968262 1684.838379,4865.413574 
	C1684.897339,4826.096191 1684.795288,4786.777832 1684.949219,4747.461426 
	C1684.971924,4741.670410 1683.308228,4735.420898 1688.631714,4729.067871 
	C1694.219727,4728.862793 1700.762451,4728.426758 1707.305908,4728.414062 
	C1743.291260,4728.344238 1779.276978,4728.426758 1815.262329,4728.322266 
	C1820.396484,4728.307617 1825.528564,4727.564453 1831.105591,4727.123047 
	C1833.715820,4716.256348 1832.716919,4706.268555 1832.493896,4696.449707 
	C1832.259888,4686.138672 1834.908569,4675.380371 1829.392578,4664.403809 
	C1822.446411,4664.403809 1815.856445,4664.404297 1809.266357,4664.404297 
	C1773.280762,4664.402344 1737.294922,4664.470703 1701.309937,4664.316406 
	C1696.237061,4664.294922 1690.552734,4665.881348 1686.484619,4661.237305 
	C1683.721191,4639.096680 1684.257935,4585.999512 1687.374878,4571.785156 
	C1693.310181,4567.548828 1700.183105,4569.180176 1706.680664,4569.158691 
	C1749.996216,4569.017578 1793.312622,4569.163574 1836.628174,4569.004883 
	C1843.816895,4568.979004 1851.293335,4570.558594 1859.461060,4566.124512 
	C1859.304810,4546.977539 1860.824341,4527.239746 1858.406860,4508.149902 
	C1856.182007,4506.952637 1855.044922,4505.810059 1853.898804,4505.800781 
	C1815.266479,4505.486328 1776.633423,4505.279785 1734.000244,4505.057129 
M2099.302002,4694.000000 
	C2099.300781,4751.964844 2099.232422,4809.930176 2099.394531,4867.894531 
	C2099.412354,4874.247070 2097.285889,4881.272949 2102.667236,4886.629395 
	C2131.142578,4889.247559 2149.312012,4888.600586 2162.741455,4884.228516 
	C2163.944580,4867.404785 2163.167236,4850.145508 2163.302002,4832.920898 
	C2163.437256,4815.599121 2163.334717,4798.274902 2163.336182,4780.952148 
	C2163.337646,4763.629395 2163.339600,4746.306641 2163.339844,4728.983887 
	C2163.340088,4710.994629 2163.339600,4693.005371 2163.338379,4675.016113 
	C2163.337158,4657.693359 2163.056641,4640.364746 2163.411133,4623.049316 
	C2163.762695,4605.872559 2161.719482,4588.577148 2165.110107,4570.042480 
	C2192.373047,4567.542969 2219.583984,4570.632324 2247.681152,4567.983398 
	C2247.607666,4547.100586 2249.347412,4527.354980 2246.644287,4506.799316 
	C2242.888916,4506.168945 2239.736816,4505.296387 2236.552734,4505.157227 
	C2192.713135,4503.248535 2032.150757,4504.567871 2017.068115,4506.875488 
	C2013.170898,4521.357910 2013.033569,4550.672852 2017.009277,4568.308105 
	C2022.590820,4568.556152 2028.476440,4569.004395 2034.364746,4569.043457 
	C2051.686768,4569.157715 2069.011963,4568.978516 2086.331299,4569.230957 
	C2090.063965,4569.284668 2093.777832,4570.667480 2096.792236,4571.291504 
	C2097.799072,4573.674805 2098.748779,4574.879883 2098.756348,4576.091797 
	C2098.994629,4614.061035 2099.141357,4652.030273 2099.302002,4694.000000 
M2479.019287,4823.775391 
	C2475.853027,4823.365723 2472.686523,4822.956543 2468.793945,4822.453125 
	C2468.265869,4818.407715 2467.554443,4815.240234 2467.493652,4812.060059 
	C2467.314941,4802.737305 2467.376953,4793.409180 2467.376465,4784.083496 
	C2467.372070,4698.818359 2467.409912,4613.552734 2467.310303,4528.287598 
	C2467.302002,4521.183105 2468.561035,4513.787109 2465.075439,4506.208984 
	C2444.892578,4504.450195 2425.261475,4504.265625 2404.235840,4506.453125 
	C2403.918213,4513.890625 2403.409424,4520.381836 2403.400391,4526.874512 
	C2403.333740,4574.836426 2403.366943,4622.797852 2403.368164,4670.759766 
	C2403.369873,4735.375000 2403.336182,4799.989746 2403.421875,4864.604980 
	C2403.431396,4871.733398 2402.420166,4879.080566 2405.361816,4886.459473 
	C2408.531982,4886.924805 2411.071045,4887.621582 2413.610596,4887.623535 
	C2481.555420,4887.671387 2549.500000,4887.665527 2617.444824,4887.562500 
	C2619.889404,4887.558594 2622.332520,4886.474609 2624.363281,4885.992188 
	C2627.605713,4867.500977 2627.436523,4840.933594 2623.696289,4823.830566 
	C2577.090332,4823.791992 2529.973633,4823.817383 2479.019287,4823.775391 
M2928.586670,5266.909668 
	C2932.871094,5261.424805 2935.475098,5254.469727 2943.506104,5248.535645 
	C2943.998535,5255.403809 2944.557617,5259.784668 2944.584229,5264.168945 
	C2944.698486,5282.830566 2944.534668,5301.495117 2944.772217,5320.154785 
	C2944.819580,5323.882812 2946.179932,5327.593262 2946.947021,5331.370605 
	C2957.770996,5332.721680 2967.546875,5333.312988 2978.152832,5330.777832 
	C2978.662354,5327.210938 2979.507812,5324.035156 2979.511719,5320.857910 
	C2979.585693,5260.871582 2979.582520,5200.885254 2979.464355,5140.898926 
	C2979.460205,5138.792480 2978.110352,5136.688965 2976.416260,5131.753906 
	C2945.513428,5178.575684 2916.235107,5222.936035 2886.721191,5267.653320 
	C2878.694824,5262.369141 2875.726807,5254.657227 2871.160156,5248.280273 
	C2866.895264,5242.325684 2863.065674,5236.059570 2859.032227,5229.938965 
	C2854.632080,5223.261719 2850.215576,5216.595703 2845.809082,5209.922852 
	C2841.769531,5203.806152 2837.730713,5197.689453 2833.698730,5191.567871 
	C2829.299805,5184.890625 2824.912354,5178.205078 2820.513428,5171.527344 
	C2816.481201,5165.405762 2812.568115,5159.200195 2808.368164,5153.195801 
	C2804.000000,5146.951660 2800.872070,5139.625000 2793.648438,5133.948730 
	C2792.625488,5137.259766 2791.632324,5138.978516 2791.629883,5140.698730 
	C2791.547852,5201.351074 2791.522949,5262.002930 2791.662598,5322.655273 
	C2791.669434,5325.685547 2793.215820,5328.713379 2794.049561,5331.757812 
	C2804.726807,5332.284668 2814.513428,5333.842285 2824.836426,5330.243164 
	C2825.073975,5323.022949 2825.429932,5316.427734 2825.480713,5309.830078 
	C2825.608643,5293.168457 2825.537109,5276.504883 2825.697998,5259.843750 
	C2825.729248,5256.603027 2825.997559,5253.070312 2831.712158,5252.372559 
	C2835.137451,5257.228516 2839.048584,5262.498047 2842.670410,5267.958984 
	C2854.457520,5285.729004 2866.059814,5303.622070 2877.936523,5321.332031 
	C2879.966553,5324.358887 2882.994873,5326.715820 2886.572754,5330.432129 
	C2900.617676,5309.250977 2913.841064,5289.307617 2928.586670,5266.909668 
M2509.931885,5162.038086 
	C2525.756836,5161.329590 2541.739746,5163.734863 2557.262207,5160.350098 
	C2560.409668,5142.790039 2560.382568,5142.072266 2555.772949,5127.700195 
	C2535.700928,5127.700195 2515.122803,5127.381348 2494.559082,5127.790527 
	C2474.160889,5128.196289 2453.630859,5125.960449 2432.556885,5129.303711 
	C2432.148438,5134.142090 2431.541016,5138.009766 2431.537598,5141.878418 
	C2431.485840,5201.153809 2431.481445,5260.429199 2431.593506,5319.704590 
	C2431.600830,5323.464844 2432.656982,5327.223633 2433.310303,5331.545410 
	C2438.932617,5331.876953 2443.491943,5332.394043 2448.048828,5332.375977 
	C2483.330078,5332.238770 2518.611084,5332.014160 2553.890869,5331.712402 
	C2555.026611,5331.702637 2556.153076,5330.565918 2558.793457,5329.138184 
	C2559.205811,5320.279297 2560.662598,5310.601074 2558.131592,5301.022949 
	C2551.652588,5296.979004 2544.822998,5298.450195 2538.283203,5298.383301 
	C2518.970703,5298.185547 2499.653320,5298.427734 2480.342285,5298.156738 
	C2475.946045,5298.095215 2471.568848,5296.659180 2466.297363,5295.693359 
	C2465.494629,5279.674316 2464.314941,5264.693359 2467.060059,5248.861816 
	C2473.221436,5248.376465 2478.407227,5247.668457 2483.600098,5247.613770 
	C2498.916992,5247.452148 2514.237793,5247.665527 2529.553711,5247.471680 
	C2534.035400,5247.415039 2538.505859,5246.483398 2543.265137,5245.919434 
	C2545.147217,5234.623047 2545.885742,5224.390137 2542.591064,5213.451660 
	C2536.330078,5213.177246 2531.104492,5212.783691 2525.876709,5212.750000 
	C2510.558838,5212.651367 2495.237305,5212.852051 2479.923340,5212.586426 
	C2475.528076,5212.510254 2471.153320,5211.249023 2465.953369,5210.397461 
	C2465.775391,5202.079590 2465.377930,5194.799316 2465.529541,5187.530762 
	C2465.691650,5179.753906 2464.279541,5171.707520 2468.035645,5163.417480 
	C2480.861084,5161.039062 2493.472900,5162.421875 2509.931885,5162.038086 
M3271.902832,5299.052734 
	C3291.792236,5299.122559 3311.698730,5298.574707 3331.786621,5299.417969 
	C3337.358887,5310.966309 3342.470215,5321.559570 3347.732178,5332.465332 
	C3354.106689,5332.465332 3359.418701,5332.700195 3364.700195,5332.400391 
	C3370.272217,5332.084473 3376.355957,5333.954590 3382.506592,5329.133301 
	C3354.908936,5262.402344 3327.526123,5196.128906 3298.710693,5128.147949 
	C3295.817139,5132.865723 3293.764893,5135.392090 3292.573975,5138.274414 
	C3266.182129,5202.131836 3238.613281,5265.509277 3212.486328,5330.604492 
	C3225.126465,5333.607422 3236.173828,5332.592773 3248.322998,5331.511230 
	C3252.094482,5323.204102 3256.045166,5314.857422 3259.665771,5306.370117 
	C3261.385986,5302.337402 3263.889648,5299.738770 3271.902832,5299.052734 
M1096.042847,5175.674805 
	C1094.945190,5211.166504 1106.180664,5228.125000 1139.319702,5240.939941 
	C1147.999146,5244.296387 1156.759399,5247.451660 1165.370483,5250.973145 
	C1169.018311,5252.465332 1172.745972,5254.200195 1175.795654,5256.629395 
	C1183.312012,5262.618164 1185.552490,5270.898438 1183.301392,5279.931641 
	C1181.029541,5289.048340 1174.996582,5295.169434 1165.416138,5296.454102 
	C1151.616699,5298.304688 1138.574829,5297.584473 1131.069580,5282.965820 
	C1130.525513,5281.906250 1129.102417,5281.298340 1127.697144,5280.165039 
	C1117.309570,5279.387207 1107.275024,5281.933594 1096.970215,5286.036133 
	C1100.975952,5306.827148 1113.098999,5319.766602 1131.236816,5327.786133 
	C1141.945679,5332.520020 1153.312500,5332.498535 1164.612305,5331.803711 
	C1191.252319,5330.167480 1212.010864,5311.836914 1217.576294,5285.518555 
	C1222.978149,5259.972656 1210.498901,5234.342773 1186.565674,5222.383789 
	C1181.235596,5219.720215 1175.515259,5217.825684 1169.940308,5215.666016 
	C1161.883179,5212.543457 1153.638672,5209.852051 1145.755249,5206.345215 
	C1133.948242,5201.093262 1128.773926,5192.128906 1130.487549,5181.229980 
	C1132.295288,5169.730957 1141.142822,5163.105469 1154.841675,5162.055176 
	C1166.254272,5161.179199 1175.338989,5165.878906 1183.326050,5173.486816 
	C1193.694458,5168.932617 1203.834595,5165.971191 1211.323364,5158.351562 
	C1195.745361,5121.289551 1139.521729,5120.894043 1117.591064,5139.361816 
	C1107.004517,5148.275879 1099.903076,5159.043457 1096.042847,5175.674805 
M1823.819092,5165.564453 
	C1827.112305,5163.479004 1830.405640,5161.393066 1834.385620,5158.872559 
	C1832.584839,5155.358887 1831.516113,5152.232422 1829.618652,5149.735840 
	C1813.597290,5128.652832 1787.557007,5122.801270 1758.995361,5130.295410 
	C1735.947754,5136.342773 1720.628662,5156.417969 1718.778076,5179.761719 
	C1716.882568,5203.675293 1728.311523,5225.130371 1749.714233,5235.603027 
	C1760.437012,5240.849609 1772.014282,5244.333008 1783.128906,5248.803223 
	C1788.048218,5250.781738 1793.218628,5252.602539 1797.498901,5255.602539 
	C1805.195312,5260.996582 1808.430786,5268.905273 1806.822266,5278.292969 
	C1805.173828,5287.913086 1797.799316,5295.195801 1788.098145,5296.538086 
	C1774.141968,5298.469238 1761.300781,5297.155762 1753.786987,5282.713379 
	C1753.253052,5281.687500 1751.713257,5281.185059 1749.862549,5279.897461 
	C1740.049194,5279.903320 1729.988159,5281.655273 1720.872681,5285.973633 
	C1720.872681,5288.649414 1720.510132,5290.093750 1720.925781,5291.260254 
	C1730.893188,5319.238770 1751.078613,5332.039551 1782.447510,5332.101074 
	C1812.640747,5332.160156 1835.673096,5310.900391 1840.345825,5286.520996 
	C1845.919312,5257.441895 1832.378784,5231.928711 1804.794189,5220.188477 
	C1794.998535,5216.019531 1784.874512,5212.627930 1774.971558,5208.701660 
	C1770.663452,5206.994629 1766.162720,5205.372070 1762.404419,5202.766113 
	C1755.314941,5197.852051 1751.786499,5190.544922 1753.133179,5182.003418 
	C1754.574585,5172.859863 1759.675415,5165.803711 1769.156494,5163.542480 
	C1779.776245,5161.010742 1790.295410,5160.812988 1799.618286,5168.057617 
	C1802.102783,5169.988281 1804.790039,5171.657715 1807.177734,5173.304688 
	C1812.534058,5170.899414 1816.765381,5168.999512 1823.819092,5165.564453 
M3682.247559,5329.865723 
	C3685.969482,5328.442383 3689.912109,5327.423340 3693.376465,5325.529297 
	C3713.828613,5314.347168 3724.631348,5297.191895 3724.417236,5273.658691 
	C3724.203125,5250.115234 3713.034912,5233.147949 3692.425049,5222.339844 
	C3687.152100,5219.575195 3681.370850,5217.766602 3675.787109,5215.611328 
	C3667.716553,5212.495605 3659.457520,5209.816406 3651.561279,5206.314453 
	C3639.933594,5201.157227 3634.616699,5191.906738 3636.317139,5181.127930 
	C3638.095947,5169.851074 3647.270020,5163.123535 3660.869141,5162.058594 
	C3672.384277,5161.156738 3681.383789,5166.159668 3689.729248,5173.319824 
	C3699.543945,5168.678711 3710.120850,5166.509766 3716.882324,5157.862793 
	C3700.435303,5130.421387 3671.009766,5120.022461 3640.491211,5130.656250 
	C3616.623535,5138.973145 3603.218262,5156.509277 3601.520752,5181.234863 
	C3599.875000,5205.197754 3610.750732,5223.915039 3632.153809,5235.292969 
	C3641.495850,5240.258789 3651.850830,5243.314453 3661.733643,5247.268555 
	C3667.286133,5249.489746 3673.099609,5251.258301 3678.291504,5254.139160 
	C3687.743408,5259.383301 3691.685059,5269.333496 3689.219971,5279.657227 
	C3686.879150,5289.459961 3680.108887,5295.473145 3669.619629,5296.742676 
	C3656.245850,5298.362793 3644.311768,5296.433594 3636.936279,5283.238770 
	C3636.075195,5281.698242 3633.963867,5280.856445 3632.433105,5279.691895 
	C3622.431641,5280.625000 3612.581787,5281.053223 3603.926025,5286.052734 
	C3609.185547,5312.306152 3627.631348,5329.428711 3653.156982,5331.546387 
	C3661.703125,5332.255371 3670.403320,5331.104004 3682.247559,5329.865723 
M2118.109619,5127.706543 
	C2110.785400,5127.706543 2103.454834,5127.519531 2096.138428,5127.759277 
	C2089.012939,5127.992676 2081.633057,5126.558105 2074.182861,5129.813477 
	C2072.570312,5140.082031 2072.154541,5149.739746 2074.509277,5159.713379 
	C2088.571289,5165.510254 2104.017822,5158.206055 2118.314697,5165.142090 
	C2118.583740,5172.081543 2119.048584,5178.643555 2119.059082,5185.206543 
	C2119.126709,5227.820312 2119.051758,5270.433594 2119.147461,5313.047363 
	C2119.160645,5318.853027 2119.864258,5324.657227 2120.307129,5331.348145 
	C2131.763184,5332.342285 2141.970947,5334.372559 2152.959229,5329.264648 
	C2152.959229,5321.703613 2152.958984,5314.416016 2152.959229,5307.128418 
	C2152.960693,5265.180664 2152.895508,5223.232910 2153.041016,5181.285645 
	C2153.061279,5175.500977 2151.449219,5169.253906 2156.277344,5163.632812 
	C2169.229980,5159.352051 2183.698975,5164.863281 2198.711182,5159.388184 
	C2198.258545,5149.242676 2201.315674,5138.982422 2195.886963,5127.707031 
	C2171.232666,5127.707031 2146.651367,5127.707031 2118.109619,5127.706543 
M1451.531494,5313.416016 
	C1451.957520,5319.194336 1452.383545,5324.972168 1452.842041,5331.189941 
	C1463.907349,5332.695312 1473.543823,5333.141602 1483.955444,5330.813477 
	C1484.436035,5326.876953 1485.161743,5323.686523 1485.165405,5320.495117 
	C1485.233398,5259.888672 1485.240356,5199.281738 1485.147461,5138.675293 
	C1485.142578,5135.556641 1484.128784,5132.438965 1483.494873,5128.805176 
	C1472.743042,5127.462402 1463.124268,5127.010742 1454.164185,5128.908691 
	C1453.067749,5131.380371 1452.097778,5132.549805 1452.092896,5133.724121 
	C1451.853271,5192.321777 1451.696167,5250.920410 1451.531494,5313.416016 
z"/>
<path fill="#FAC60E" opacity="1.000000" stroke="none" 
	d="
M4.000000,3429.599854 
	C544.664978,3428.008057 1085.329956,3428.018311 1625.994873,3428.022705 
	C1995.993774,3428.025635 2365.992676,3428.009033 2735.991455,3428.093262 
	C2744.541748,3428.095215 2753.371826,3426.397949 2762.124268,3432.601318 
	C2755.706543,3438.344482 2748.729004,3442.059570 2739.800293,3445.358398 
	C2729.188477,3444.746826 2720.527588,3444.381836 2711.866699,3444.382080 
	C2571.873779,3444.385010 2431.880859,3444.464111 2291.887939,3444.468262 
	C1569.252197,3444.489990 846.616333,3444.503174 123.980553,3444.484375 
	C83.987038,3444.483398 43.993519,3444.168701 4.000000,3444.000000 
	C4.000000,3439.733154 4.000000,3435.466553 4.000000,3429.599854 
z"/>
<path fill="#747271" opacity="1.000000" stroke="none" 
	d="
M4.000000,3445.500000 
	C43.993519,3444.168701 83.987038,3444.483398 123.980553,3444.484375 
	C846.616333,3444.503174 1569.252197,3444.489990 2291.887939,3444.468262 
	C2431.880859,3444.464111 2571.873779,3444.385010 2711.866699,3444.382080 
	C2720.527588,3444.381836 2729.188477,3444.746826 2738.401855,3446.641357 
	C2731.394043,3452.509521 2723.833984,3456.678223 2716.273926,3460.846924 
	C2712.019287,3459.259033 2707.873291,3456.883301 2703.482910,3456.276123 
	C2697.591553,3455.461670 2691.511475,3455.984619 2685.512207,3455.984619 
	C1792.924561,3455.983154 900.336914,3455.986572 5.874624,3455.994873 
	C4.000000,3453.000000 4.000000,3450.000000 4.000000,3445.500000 
z"/>
<path fill="#FCC70B" opacity="1.000000" stroke="none" 
	d="
M3534.014160,3426.880859 
	C3543.978271,3427.262451 3553.942383,3427.976074 3563.906494,3427.977539 
	C3940.041016,3428.030518 4316.175293,3428.018066 4694.155273,3428.007324 
	C4696.000000,3432.266846 4696.000000,3436.533691 4694.140625,3442.666260 
	C4686.284668,3444.601562 4680.288574,3444.732178 4674.291992,3444.731689 
	C4301.778320,3444.705811 3929.265137,3444.687744 3556.751709,3444.575928 
	C3538.785400,3444.570557 3520.819336,3443.727539 3504.082031,3442.251709 
	C3506.318604,3440.880127 3507.326172,3440.531982 3509.447266,3439.992676 
	C3512.332031,3438.479248 3514.103271,3437.156738 3516.797852,3434.940430 
	C3523.151855,3431.657959 3528.583008,3429.269287 3534.014160,3426.880859 
z"/>
<path fill="#787471" opacity="1.000000" stroke="none" 
	d="
M3502.853027,3443.274658 
	C3520.819336,3443.727539 3538.785400,3444.570557 3556.751709,3444.575928 
	C3929.265137,3444.687744 4301.778320,3444.705811 4674.291992,3444.731689 
	C4680.288574,3444.732178 4686.284668,3444.601562 4694.140625,3444.266113 
	C4696.000000,3447.000000 4696.000000,3450.000000 4696.000000,3454.500000 
	C4301.455566,3455.983887 3906.911621,3455.970459 3512.367432,3455.934082 
	C3502.373291,3455.933105 3492.379150,3455.676514 3481.253174,3454.320557 
	C3487.698486,3449.826172 3495.275635,3446.550293 3502.853027,3443.274658 
z"/>
<path fill="#FFFFFE" opacity="1.000000" stroke="none" 
	d="
M3504.082031,3442.251465 
	C3495.275635,3446.550293 3487.698486,3449.826172 3479.288086,3454.152588 
	C3460.300293,3463.472412 3442.240723,3471.958740 3423.972656,3479.969238 
	C3372.133545,3502.700684 3320.651123,3526.324951 3268.232178,3547.639648 
	C3129.880615,3603.895752 2987.983643,3649.878418 2844.421631,3690.784180 
	C2677.792480,3738.262207 2509.295166,3778.010742 2339.562988,3812.712158 
	C2236.435791,3833.796143 2133.007568,3853.242188 2029.188965,3870.501465 
	C1947.717651,3884.045410 1866.067383,3896.575439 1784.352661,3908.575684 
	C1710.543579,3919.414795 1636.604492,3929.436279 1562.601196,3938.863770 
	C1500.492676,3946.776123 1438.247559,3953.671875 1375.992432,3960.362793 
	C1303.800415,3968.121826 1231.536987,3975.219238 1159.292236,3982.481934 
	C1142.060425,3984.214111 1124.780151,3985.463379 1105.934082,3985.812988 
	C1104.257568,3983.183350 1104.169067,3981.674805 1104.080566,3980.166504 
	C1156.786011,3972.314209 1209.543823,3964.795898 1262.186157,3956.541016 
	C1374.088135,3938.993164 1485.133667,3916.983887 1595.486450,3891.468750 
	C1729.239990,3860.543213 1861.467285,3824.071777 1991.947388,3781.395996 
	C2162.451416,3725.629639 2329.077637,3660.144043 2490.734619,3582.138916 
	C2561.566650,3547.960449 2631.054443,3511.324219 2699.323242,3472.326416 
	C2704.521729,3469.356689 2709.556885,3466.101562 2715.470947,3461.913086 
	C2723.833984,3456.678223 2731.394043,3452.509521 2740.352783,3447.057861 
	C2748.729004,3442.059570 2755.706543,3438.344482 2763.458008,3433.625977 
	C2785.250977,3419.866455 2806.678711,3407.731689 2827.209961,3394.232910 
	C2880.663086,3359.088135 2933.120117,3322.504883 2983.688965,3283.262939 
	C3052.218262,3230.082764 3117.308350,3173.051758 3177.125732,3110.173096 
	C3218.972168,3066.184570 3257.905273,3019.700439 3292.234863,2969.579346 
	C3341.927246,2897.028320 3381.298828,2819.545166 3401.509277,2733.335693 
	C3420.990723,2650.236084 3418.442871,2568.146484 3388.845215,2487.557617 
	C3372.428467,2442.858398 3349.849854,2401.584961 3320.712646,2363.764893 
	C3283.850586,2315.918213 3240.705078,2274.745605 3192.787354,2238.140381 
	C3128.909912,2189.343018 3059.501221,2150.051270 2986.911621,2116.081299 
	C2883.414307,2067.647705 2775.577637,2031.287231 2665.517334,2001.191040 
	C2643.117676,1995.065918 2620.644531,1989.210449 2593.566895,1981.994629 
	C2602.707031,1980.240234 2607.327148,1979.211304 2611.995361,1978.494995 
	C2617.261963,1977.687012 2622.554688,1976.892090 2627.865479,1976.552246 
	C2681.711182,1973.105103 2735.549316,1969.517700 2789.416260,1966.433594 
	C2854.001709,1962.736084 2918.684814,1963.189941 2983.264893,1965.337646 
	C3061.828125,1967.950073 3140.245605,1973.363159 3218.321045,1983.325684 
	C3303.028076,1994.134399 3386.807617,2009.410767 3469.250000,2031.763062 
	C3549.861816,2053.618652 3627.971680,2082.142578 3702.284424,2120.477539 
	C3768.978271,2154.882568 3830.516113,2196.887207 3884.559814,2249.108887 
	C3933.332031,2296.236816 3973.700928,2350.018311 4003.470947,2411.051514 
	C4031.358398,2468.224609 4050.639160,2528.381348 4060.294678,2591.456787 
	C4065.750000,2627.092041 4068.811035,2662.854248 4068.092041,2698.945312 
	C4067.389404,2734.229492 4068.212891,2769.472900 4064.703613,2804.763184 
	C4059.382812,2858.264160 4046.787109,2909.657715 4026.513428,2959.348145 
	C3997.737061,3029.878662 3956.020264,3092.054688 3905.527100,3148.718262 
	C3854.753174,3205.697754 3797.300781,3255.093506 3735.753174,3299.970703 
	C3676.433838,3343.223145 3614.250977,3381.859863 3549.624268,3416.625488 
	C3544.937988,3419.146484 3540.464111,3422.062012 3534.952637,3425.837402 
	C3528.583008,3429.269287 3523.151855,3431.657959 3515.636475,3435.004395 
	C3511.812500,3437.369385 3510.072998,3438.776611 3508.333496,3440.183594 
	C3507.326172,3440.531982 3506.318604,3440.880127 3504.082031,3442.251465 
z"/>
<path fill="#FFFFFE" opacity="1.000000" stroke="none" 
	d="
M3799.281006,504.272827 
	C3774.916992,507.948517 3750.506836,511.342682 3726.197998,515.353149 
	C3655.879150,526.954468 3585.501709,538.243225 3515.330322,550.686707 
	C3409.681641,569.421387 3305.124023,593.305725 3201.131104,619.649780 
	C3083.548828,649.436218 2967.318115,683.812561 2852.415771,722.695801 
	C2769.091064,750.893188 2686.741455,781.675171 2605.313721,814.948669 
	C2504.104736,856.305420 2404.938965,902.128296 2307.991455,952.620667 
	C2230.548096,992.954834 2154.972412,1036.633789 2081.606689,1084.056396 
	C2017.750977,1125.332153 1955.942261,1169.482422 1896.756958,1217.205811 
	C1835.977173,1266.214722 1778.771240,1319.170410 1726.220093,1376.950195 
	C1683.987183,1423.385254 1645.667969,1472.987183 1613.466431,1526.928345 
	C1579.141113,1584.427002 1551.464111,1644.979126 1538.579468,1711.175171 
	C1519.151611,1810.988037 1531.596802,1905.787109 1583.434692,1994.739014 
	C1613.345215,2046.064453 1651.805542,2089.754883 1695.734741,2129.067139 
	C1746.154419,2174.187500 1802.244751,2211.165283 1861.428711,2243.648926 
	C1957.032959,2296.122070 2058.109863,2335.404053 2161.845459,2368.255859 
	C2218.389160,2386.162598 2275.596924,2401.706787 2333.154785,2415.989990 
	C2336.025635,2416.702393 2338.727295,2418.097412 2344.048340,2420.158936 
	C2339.812012,2422.038574 2338.332520,2423.168457 2336.754883,2423.327148 
	C2254.495361,2431.614258 2172.030518,2436.602295 2089.352295,2436.749756 
	C2032.708496,2436.850830 1976.025513,2436.693848 1919.426392,2434.734131 
	C1848.167603,2432.266357 1777.150757,2426.062744 1706.378662,2416.916504 
	C1632.950562,2407.427490 1560.219116,2394.482422 1488.414551,2376.437500 
	C1408.751465,2356.417725 1331.109009,2330.544189 1256.831787,2295.203857 
	C1192.764038,2264.721680 1132.751831,2227.729492 1078.699585,2181.571289 
	C1029.147705,2139.255859 986.833435,2090.463867 954.276978,2034.018066 
	C918.029175,1971.172119 893.619141,1903.984985 883.059937,1831.673218 
	C872.480286,1759.221313 872.877014,1686.908203 880.672729,1614.436401 
	C887.311523,1552.720581 906.840088,1495.064819 935.634399,1440.141724 
	C966.254089,1381.736572 1006.209351,1330.476807 1051.779907,1283.281372 
	C1102.453247,1230.801392 1159.218140,1185.623535 1219.294556,1144.504028 
	C1313.068115,1080.320557 1413.148071,1027.563232 1516.517212,980.750549 
	C1635.628906,926.808472 1758.056274,881.614258 1882.416748,841.491821 
	C2016.902954,798.102478 2153.176758,761.155640 2290.533447,728.064270 
	C2419.449707,697.006287 2549.140137,669.529846 2679.531006,645.567383 
	C2781.087646,626.903809 2882.872314,609.303894 2984.894287,593.402527 
	C3083.632324,578.013000 3182.740234,564.929260 3281.803711,551.718689 
	C3353.782959,542.119934 3425.883545,533.319031 3498.060791,525.346130 
	C3570.897949,517.300232 3643.895752,510.707062 3716.824951,503.496460 
	C3727.434326,502.447479 3738.054199,501.504303 3751.115234,501.094452 
	C3755.706787,501.123108 3757.852051,500.569458 3759.997559,500.015808 
	C3772.220459,498.767120 3784.443604,497.518463 3798.347412,497.330750 
	C3799.779297,500.352051 3799.530273,502.312469 3799.281006,504.272827 
z"/>
<path fill="#FCE397" opacity="1.000000" stroke="none" 
	d="
M3915.847900,487.008881 
	C3933.110352,481.841187 3951.084473,483.103699 3968.717529,481.388885 
	C3978.870117,480.401611 3989.197021,481.209839 3999.553955,482.714050 
	C3972.804199,485.744385 3946.054199,488.774750 3917.539062,490.505249 
	C3915.798340,488.473236 3915.823242,487.741058 3915.847900,487.008881 
z"/>
<path fill="#FDEFC6" opacity="1.000000" stroke="none" 
	d="
M3835.660645,493.147644 
	C3850.177490,491.218750 3864.677979,488.714752 3880.880371,490.788574 
	C3871.106934,497.916840 3870.980225,497.943207 3837.662842,498.888489 
	C3835.800537,496.096893 3835.730469,494.622284 3835.660645,493.147644 
z"/>
<path fill="#FFFFFE" opacity="1.000000" stroke="none" 
	d="
M3834.179199,493.105530 
	C3835.730469,494.622284 3835.800537,496.096893 3835.893066,498.679138 
	C3829.026367,500.889709 3822.137451,501.992676 3813.696777,501.840942 
	C3812.106689,498.924591 3812.068604,497.262939 3812.030273,495.601257 
	C3818.919434,494.755310 3825.808838,493.909393 3834.179199,493.105530 
z"/>
<path fill="#FDEFC6" opacity="1.000000" stroke="none" 
	d="
M3811.054199,495.251129 
	C3812.068604,497.262939 3812.106689,498.924591 3812.206543,501.833344 
	C3808.801270,503.695923 3805.334229,504.311371 3800.574219,504.599854 
	C3799.530273,502.312469 3799.779297,500.352051 3800.025879,497.400421 
	C3803.375000,495.906464 3806.726318,495.403717 3811.054199,495.251129 
z"/>
<path fill="#FDEFC6" opacity="1.000000" stroke="none" 
	d="
M3914.143555,486.986389 
	C3915.823242,487.741058 3915.798340,488.473236 3915.772461,490.304077 
	C3907.404541,492.402466 3899.022461,494.081543 3888.308594,491.253571 
	C3897.295654,485.727509 3905.145752,487.902313 3914.143555,486.986389 
z"/>
<path fill="#FDEFC6" opacity="1.000000" stroke="none" 
	d="
M3759.233643,499.660034 
	C3757.852051,500.569458 3755.706787,501.123108 3752.839111,501.124329 
	C3754.234619,500.149384 3756.352051,499.726837 3759.233643,499.660034 
z"/>
<path fill="#FCFCFC" opacity="1.000000" stroke="none" 
	d="
M1445.238892,4610.955078 
	C1469.750000,4662.392578 1472.219849,4713.654297 1452.578491,4765.436035 
	C1422.548706,4844.605957 1342.717285,4894.853516 1258.587280,4887.239746 
	C1161.521606,4878.456055 1101.171875,4806.135742 1087.164917,4735.207520 
	C1064.000366,4617.906738 1147.990356,4518.051270 1250.789795,4507.145508 
	C1329.666138,4498.777832 1390.923340,4529.182617 1435.640137,4594.032227 
	C1439.026978,4598.944336 1441.593628,4604.420898 1445.238892,4610.955078 
M1169.266846,4768.326172 
	C1171.669312,4771.515137 1173.921021,4774.832031 1176.497314,4777.873535 
	C1214.617188,4822.883789 1275.991821,4836.520996 1328.559937,4811.712402 
	C1380.871094,4787.024902 1409.791992,4730.365723 1399.477295,4672.777344 
	C1389.190308,4615.344238 1338.519287,4571.107422 1278.690186,4569.313965 
	C1217.037231,4567.466309 1167.875732,4607.075195 1152.454468,4660.567383 
	C1141.763062,4697.652832 1146.821777,4733.038086 1169.266846,4768.326172 
z"/>
<path fill="#FCFCFC" opacity="1.000000" stroke="none" 
	d="
M3978.950928,4814.959473 
	C3945.798096,4855.464844 3904.492188,4878.871582 3854.066162,4886.053223 
	C3848.142578,4886.896973 3842.139648,4887.602051 3836.169922,4887.631348 
	C3800.178955,4887.809570 3764.187500,4887.791504 3728.196045,4887.768555 
	C3725.565918,4887.767090 3722.936279,4887.214844 3719.325195,4886.808105 
	C3718.514648,4883.113770 3717.369629,4879.432129 3716.974365,4875.672363 
	C3716.558105,4871.715820 3716.848145,4867.683594 3716.848145,4863.684570 
	C3716.846436,4752.376465 3716.838867,4641.068359 3716.865479,4529.760254 
	C3716.867188,4522.545410 3717.131348,4515.331055 3717.289795,4507.280762 
	C3722.246826,4506.414551 3726.016602,4505.199219 3729.790771,4505.184082 
	C3763.782471,4505.043457 3797.792480,4504.410156 3831.763672,4505.255371 
	C3929.026367,4507.675781 4007.475098,4578.706055 4018.871826,4674.989746 
	C4024.140381,4719.503418 4014.152588,4761.095703 3990.168457,4799.124512 
	C3986.973877,4804.189453 3983.295166,4808.949219 3978.950928,4814.959473 
M3911.300781,4793.520996 
	C3915.572266,4789.325684 3920.230713,4785.454102 3924.054443,4780.883789 
	C3955.639648,4743.137695 3965.028320,4700.464844 3948.376709,4654.021973 
	C3931.770508,4607.705566 3898.107422,4579.410156 3849.300049,4571.518555 
	C3831.066895,4568.570312 3812.178467,4569.560547 3793.580811,4569.077148 
	C3789.856201,4568.980469 3786.093750,4570.348145 3781.969727,4571.110352 
	C3781.529297,4575.297852 3780.894287,4578.532227 3780.892090,4581.766113 
	C3780.839844,4658.328125 3780.824951,4734.890137 3780.954102,4811.452148 
	C3780.960205,4815.203125 3782.339844,4818.952148 3783.314209,4823.887695 
	C3796.636230,4823.887695 3809.232422,4823.605469 3821.812012,4823.941895 
	C3854.354736,4824.811523 3883.514404,4815.629395 3911.300781,4793.520996 
z"/>
<path fill="#FBFBFB" opacity="1.000000" stroke="none" 
	d="
M3399.264160,4640.788086 
	C3430.367432,4671.020020 3460.449219,4700.267578 3490.594238,4729.449707 
	C3491.403320,4730.232910 3492.903564,4730.301758 3494.275391,4730.769531 
	C3499.464844,4727.918457 3497.776855,4722.773438 3497.803955,4718.505371 
	C3497.977051,4691.198242 3497.908691,4663.890137 3497.911621,4636.582031 
	C3497.915771,4599.949219 3497.833984,4563.316406 3497.985352,4526.684570 
	C3498.012207,4520.182129 3496.396240,4513.336426 3500.275146,4507.355469 
	C3515.734863,4504.294434 3542.664307,4504.182617 3559.351562,4507.066406 
	C3560.014648,4508.192383 3561.253906,4509.317383 3561.257080,4510.446289 
	C3561.622314,4632.305664 3561.900879,4754.165039 3562.127197,4876.024902 
	C3562.131836,4878.515137 3561.468750,4881.006348 3561.154053,4883.237305 
	C3554.223877,4885.138184 3552.290771,4879.685547 3549.300293,4876.772461 
	C3489.660889,4818.681152 3430.153809,4760.453613 3370.618408,4702.255859 
	C3359.187744,4691.081543 3347.781738,4679.882324 3336.290527,4668.770508 
	C3333.486328,4666.058594 3330.389648,4663.649414 3327.363281,4661.045898 
	C3321.316650,4665.253906 3323.541016,4671.056641 3323.526611,4675.875488 
	C3323.339355,4738.483398 3323.416016,4801.091797 3323.354736,4863.700195 
	C3323.347900,4870.882812 3322.907227,4878.064941 3322.631836,4886.316406 
	C3301.721680,4888.904297 3282.098145,4887.953613 3261.136230,4886.994141 
	C3260.496094,4881.291992 3259.464111,4876.232910 3259.436035,4871.168457 
	C3259.278076,4842.529297 3259.361328,4813.888672 3259.361328,4785.248535 
	C3259.361816,4700.660645 3259.346680,4616.072754 3259.390869,4531.484863 
	C3259.394531,4524.380859 3259.795410,4517.277344 3259.990967,4510.846680 
	C3262.011719,4510.026855 3262.630859,4509.577148 3263.245605,4509.583008 
	C3263.840088,4509.588867 3264.560791,4509.927246 3265.003662,4510.351562 
	C3281.827148,4526.462402 3298.713867,4542.508301 3315.405762,4558.755371 
	C3343.088135,4585.699707 3370.642822,4612.775391 3399.264160,4640.788086 
z"/>
<path fill="#FCFCFC" opacity="1.000000" stroke="none" 
	d="
M2910.721680,4578.357422 
	C2921.089600,4553.675293 2930.855957,4530.398926 2941.521240,4504.979980 
	C2944.636230,4510.058105 2947.000732,4512.981934 2948.390625,4516.312500 
	C2997.625977,4634.304199 3046.786377,4752.326660 3095.867188,4870.382812 
	C3097.832275,4875.109375 3098.922119,4880.199219 3100.807861,4886.395508 
	C3078.180420,4888.932617 3057.124023,4887.354004 3035.264648,4887.616699 
	C3023.456787,4867.913574 3018.176514,4845.572266 3007.285156,4826.239258 
	C2991.968750,4823.683594 2909.289307,4823.004395 2877.912842,4825.226562 
	C2866.760010,4843.864746 2861.158691,4866.046387 2850.556885,4885.586914 
	C2834.997070,4888.403809 2802.550781,4888.564453 2785.180664,4885.969238 
	C2784.953125,4885.342773 2784.669189,4884.730469 2784.514160,4884.086426 
	C2784.363770,4883.461914 2784.208252,4882.784668 2784.298584,4882.166504 
	C2784.489746,4880.857910 2784.668945,4879.504395 2785.154053,4878.289551 
	C2787.376465,4872.724121 2789.679199,4867.190918 2791.994873,4861.663574 
	C2831.365967,4767.695312 2870.743896,4673.729004 2910.721680,4578.357422 
M2919.796875,4721.837891 
	C2916.207275,4730.379883 2912.382568,4738.833496 2909.143311,4747.506348 
	C2907.847168,4750.977539 2907.840088,4754.929688 2907.240479,4758.697754 
	C2933.035156,4761.944824 2965.812500,4761.137207 2977.998047,4757.107422 
	C2977.893066,4755.829102 2978.101074,4754.421875 2977.637207,4753.290527 
	C2967.347412,4728.187012 2957.029297,4703.094727 2946.543213,4678.073242 
	C2945.725342,4676.121582 2943.635498,4674.702637 2941.016357,4671.790527 
	C2933.834961,4688.620605 2927.364258,4703.785156 2919.796875,4721.837891 
z"/>
<path fill="#FCFCFC" opacity="1.000000" stroke="none" 
	d="
M928.062195,4772.649414 
	C928.950256,4790.702637 926.408142,4806.479004 919.670837,4821.237305 
	C903.243774,4857.221191 875.643005,4878.961914 836.207825,4884.953125 
	C818.927917,4887.579102 801.638367,4887.196777 784.455566,4884.171875 
	C742.145935,4876.724121 708.719543,4842.955566 701.252319,4799.113281 
	C720.524902,4792.780762 740.731445,4791.025391 759.529724,4787.921875 
	C761.685364,4789.942383 763.041748,4790.635742 763.465515,4791.699707 
	C768.629822,4804.668945 776.605835,4815.452637 790.361755,4819.393066 
	C807.301880,4824.246582 824.800354,4825.126953 841.129456,4817.102539 
	C856.123291,4809.733887 863.542786,4796.772461 864.072510,4780.031738 
	C864.603821,4763.242676 857.457336,4750.357422 843.457336,4741.459473 
	C839.022766,4738.641602 833.829895,4736.942383 828.862488,4735.050293 
	C808.321838,4727.228027 787.649719,4719.745117 767.185669,4711.729980 
	C737.716614,4700.187988 716.720276,4679.701660 705.317505,4650.139160 
	C681.129944,4587.431641 720.149719,4518.865723 786.381470,4507.181152 
	C805.620117,4503.787109 824.923706,4503.761719 843.998718,4507.863770 
	C876.458130,4514.843262 900.177795,4533.411621 916.522034,4563.298828 
	C908.432312,4571.093750 898.661194,4573.845215 890.062500,4578.424316 
	C881.260498,4583.111816 872.141846,4587.205078 862.214417,4592.017578 
	C858.998535,4588.933594 855.688965,4585.929688 852.574158,4582.735352 
	C846.846924,4576.862793 840.170898,4572.707520 832.110046,4570.932617 
	C819.568115,4568.170410 806.959656,4567.898926 794.493164,4571.001465 
	C777.150330,4575.318848 765.326538,4588.642578 763.039185,4605.762695 
	C760.565979,4624.273926 768.488037,4640.452637 784.747375,4649.305664 
	C789.400146,4651.838867 794.456787,4653.678711 799.431641,4655.564453 
	C817.493835,4662.407715 835.589844,4669.161621 853.691162,4675.900879 
	C897.890625,4692.355957 922.943787,4723.779785 928.062195,4772.649414 
z"/>
<path fill="#FBFBFB" opacity="1.000000" stroke="none" 
	d="
M1736.000244,4505.057617 
	C1776.633423,4505.279785 1815.266479,4505.486328 1853.898804,4505.800781 
	C1855.044922,4505.810059 1856.182007,4506.952637 1858.406860,4508.149902 
	C1860.824341,4527.239746 1859.304810,4546.977539 1859.461060,4566.124512 
	C1851.293335,4570.558594 1843.816895,4568.979004 1836.628174,4569.004883 
	C1793.312622,4569.163574 1749.996216,4569.017578 1706.680664,4569.158691 
	C1700.183105,4569.180176 1693.310181,4567.548828 1687.374878,4571.785156 
	C1684.257935,4585.999512 1683.721191,4639.096680 1686.484619,4661.237305 
	C1690.552734,4665.881348 1696.237061,4664.294922 1701.309937,4664.316406 
	C1737.294922,4664.470703 1773.280762,4664.402344 1809.266357,4664.404297 
	C1815.856445,4664.404297 1822.446411,4664.403809 1829.392578,4664.403809 
	C1834.908569,4675.380371 1832.259888,4686.138672 1832.493896,4696.449707 
	C1832.716919,4706.268555 1833.715820,4716.256348 1831.105591,4727.123047 
	C1825.528564,4727.564453 1820.396484,4728.307617 1815.262329,4728.322266 
	C1779.276978,4728.426758 1743.291260,4728.344238 1707.305908,4728.414062 
	C1700.762451,4728.426758 1694.219727,4728.862793 1688.631714,4729.067871 
	C1683.308228,4735.420898 1684.971924,4741.670410 1684.949219,4747.461426 
	C1684.795288,4786.777832 1684.897339,4826.096191 1684.838379,4865.413574 
	C1684.828491,4871.968262 1684.436401,4878.521973 1684.232422,4884.727539 
	C1669.826782,4888.489258 1646.477417,4889.031738 1623.801147,4886.369141 
	C1618.825073,4880.025391 1620.961548,4872.403809 1620.943481,4865.334961 
	C1620.768677,4797.362793 1620.840210,4729.389648 1620.838745,4661.416992 
	C1620.837769,4616.768066 1620.801880,4572.119629 1620.862549,4527.470703 
	C1620.871460,4520.936523 1621.330322,4514.403320 1621.623413,4506.766602 
	C1627.812378,4506.122070 1632.923462,4505.151367 1638.038818,4505.128906 
	C1670.025391,4504.987793 1702.012939,4505.057129 1736.000244,4505.057617 
z"/>
<path fill="#FCFCFC" opacity="1.000000" stroke="none" 
	d="
M2099.302002,4692.000000 
	C2099.141357,4652.030273 2098.994629,4614.061035 2098.756348,4576.091797 
	C2098.748779,4574.879883 2097.799072,4573.674805 2096.792236,4571.291504 
	C2093.777832,4570.667480 2090.063965,4569.284668 2086.331299,4569.230957 
	C2069.011963,4568.978516 2051.686768,4569.157715 2034.364746,4569.043457 
	C2028.476440,4569.004395 2022.590820,4568.556152 2017.009277,4568.308105 
	C2013.033569,4550.672852 2013.170898,4521.357910 2017.068115,4506.875488 
	C2032.150757,4504.567871 2192.713135,4503.248535 2236.552734,4505.157227 
	C2239.736816,4505.296387 2242.888916,4506.168945 2246.644287,4506.799316 
	C2249.347412,4527.354980 2247.607666,4547.100586 2247.681152,4567.983398 
	C2219.583984,4570.632324 2192.373047,4567.542969 2165.110107,4570.042480 
	C2161.719482,4588.577148 2163.762695,4605.872559 2163.411133,4623.049316 
	C2163.056641,4640.364746 2163.337158,4657.693359 2163.338379,4675.016113 
	C2163.339600,4693.005371 2163.340088,4710.994629 2163.339844,4728.983887 
	C2163.339600,4746.306641 2163.337646,4763.629395 2163.336182,4780.952148 
	C2163.334717,4798.274902 2163.437256,4815.599121 2163.302002,4832.920898 
	C2163.167236,4850.145508 2163.944580,4867.404785 2162.741455,4884.228516 
	C2149.312012,4888.600586 2131.142578,4889.247559 2102.667236,4886.629395 
	C2097.285889,4881.272949 2099.412354,4874.247070 2099.394531,4867.894531 
	C2099.232422,4809.930176 2099.300781,4751.964844 2099.302002,4692.000000 
z"/>
<path fill="#FCFCFC" opacity="1.000000" stroke="none" 
	d="
M2480.938477,4823.789062 
	C2529.973633,4823.817383 2577.090332,4823.791992 2623.696289,4823.830566 
	C2627.436523,4840.933594 2627.605713,4867.500977 2624.363281,4885.992188 
	C2622.332520,4886.474609 2619.889404,4887.558594 2617.444824,4887.562500 
	C2549.500000,4887.665527 2481.555420,4887.671387 2413.610596,4887.623535 
	C2411.071045,4887.621582 2408.531982,4886.924805 2405.361816,4886.459473 
	C2402.420166,4879.080566 2403.431396,4871.733398 2403.421875,4864.604980 
	C2403.336182,4799.989746 2403.369873,4735.375000 2403.368164,4670.759766 
	C2403.366943,4622.797852 2403.333740,4574.836426 2403.400391,4526.874512 
	C2403.409424,4520.381836 2403.918213,4513.890625 2404.235840,4506.453125 
	C2425.261475,4504.265625 2444.892578,4504.450195 2465.075439,4506.208984 
	C2468.561035,4513.787109 2467.302002,4521.183105 2467.310303,4528.287598 
	C2467.409912,4613.552734 2467.372070,4698.818359 2467.376465,4784.083496 
	C2467.376953,4793.409180 2467.314941,4802.737305 2467.493652,4812.060059 
	C2467.554443,4815.240234 2468.265869,4818.407715 2468.793945,4822.453125 
	C2472.686523,4822.956543 2475.853027,4823.365723 2480.938477,4823.789062 
z"/>
<path fill="#FAFAFA" opacity="1.000000" stroke="none" 
	d="
M2927.825684,5268.137207 
	C2913.841064,5289.307617 2900.617676,5309.250977 2886.572754,5330.432129 
	C2882.994873,5326.715820 2879.966553,5324.358887 2877.936523,5321.332031 
	C2866.059814,5303.622070 2854.457520,5285.729004 2842.670410,5267.958984 
	C2839.048584,5262.498047 2835.137451,5257.228516 2831.712158,5252.372559 
	C2825.997559,5253.070312 2825.729248,5256.603027 2825.697998,5259.843750 
	C2825.537109,5276.504883 2825.608643,5293.168457 2825.480713,5309.830078 
	C2825.429932,5316.427734 2825.073975,5323.022949 2824.836426,5330.243164 
	C2814.513428,5333.842285 2804.726807,5332.284668 2794.049561,5331.757812 
	C2793.215820,5328.713379 2791.669434,5325.685547 2791.662598,5322.655273 
	C2791.522949,5262.002930 2791.547852,5201.351074 2791.629883,5140.698730 
	C2791.632324,5138.978516 2792.625488,5137.259766 2793.648438,5133.948730 
	C2800.872070,5139.625000 2804.000000,5146.951660 2808.368164,5153.195801 
	C2812.568115,5159.200195 2816.481201,5165.405762 2820.513428,5171.527344 
	C2824.912354,5178.205078 2829.299805,5184.890625 2833.698730,5191.567871 
	C2837.730713,5197.689453 2841.769531,5203.806152 2845.809082,5209.922852 
	C2850.215576,5216.595703 2854.632080,5223.261719 2859.032227,5229.938965 
	C2863.065674,5236.059570 2866.895264,5242.325684 2871.160156,5248.280273 
	C2875.726807,5254.657227 2878.694824,5262.369141 2886.721191,5267.653320 
	C2916.235107,5222.936035 2945.513428,5178.575684 2976.416260,5131.753906 
	C2978.110352,5136.688965 2979.460205,5138.792480 2979.464355,5140.898926 
	C2979.582520,5200.885254 2979.585693,5260.871582 2979.511719,5320.857910 
	C2979.507812,5324.035156 2978.662354,5327.210938 2978.152832,5330.777832 
	C2967.546875,5333.312988 2957.770996,5332.721680 2946.947021,5331.370605 
	C2946.179932,5327.593262 2944.819580,5323.882812 2944.772217,5320.154785 
	C2944.534668,5301.495117 2944.698486,5282.830566 2944.584229,5264.168945 
	C2944.557617,5259.784668 2943.998535,5255.403809 2943.506104,5248.535645 
	C2935.475098,5254.469727 2932.871094,5261.424805 2927.825684,5268.137207 
z"/>
<path fill="#FCFCFC" opacity="1.000000" stroke="none" 
	d="
M2507.951172,5162.037109 
	C2493.472900,5162.421875 2480.861084,5161.039062 2468.035645,5163.417480 
	C2464.279541,5171.707520 2465.691650,5179.753906 2465.529541,5187.530762 
	C2465.377930,5194.799316 2465.775391,5202.079590 2465.953369,5210.397461 
	C2471.153320,5211.249023 2475.528076,5212.510254 2479.923340,5212.586426 
	C2495.237305,5212.852051 2510.558838,5212.651367 2525.876709,5212.750000 
	C2531.104492,5212.783691 2536.330078,5213.177246 2542.591064,5213.451660 
	C2545.885742,5224.390137 2545.147217,5234.623047 2543.265137,5245.919434 
	C2538.505859,5246.483398 2534.035400,5247.415039 2529.553711,5247.471680 
	C2514.237793,5247.665527 2498.916992,5247.452148 2483.600098,5247.613770 
	C2478.407227,5247.668457 2473.221436,5248.376465 2467.060059,5248.861816 
	C2464.314941,5264.693359 2465.494629,5279.674316 2466.297363,5295.693359 
	C2471.568848,5296.659180 2475.946045,5298.095215 2480.342285,5298.156738 
	C2499.653320,5298.427734 2518.970703,5298.185547 2538.283203,5298.383301 
	C2544.822998,5298.450195 2551.652588,5296.979004 2558.131592,5301.022949 
	C2560.662598,5310.601074 2559.205811,5320.279297 2558.793457,5329.138184 
	C2556.153076,5330.565918 2555.026611,5331.702637 2553.890869,5331.712402 
	C2518.611084,5332.014160 2483.330078,5332.238770 2448.048828,5332.375977 
	C2443.491943,5332.394043 2438.932617,5331.876953 2433.310303,5331.545410 
	C2432.656982,5327.223633 2431.600830,5323.464844 2431.593506,5319.704590 
	C2431.481445,5260.429199 2431.485840,5201.153809 2431.537598,5141.878418 
	C2431.541016,5138.009766 2432.148438,5134.142090 2432.556885,5129.303711 
	C2453.630859,5125.960449 2474.160889,5128.196289 2494.559082,5127.790527 
	C2515.122803,5127.381348 2535.700928,5127.700195 2555.772949,5127.700195 
	C2560.382568,5142.072266 2560.409668,5142.790039 2557.262207,5160.350098 
	C2541.739746,5163.734863 2525.756836,5161.329590 2507.951172,5162.037109 
z"/>
<path fill="#F9F9F9" opacity="1.000000" stroke="none" 
	d="
M3270.116211,5299.150879 
	C3263.889648,5299.738770 3261.385986,5302.337402 3259.665771,5306.370117 
	C3256.045166,5314.857422 3252.094482,5323.204102 3248.322998,5331.511230 
	C3236.173828,5332.592773 3225.126465,5333.607422 3212.486328,5330.604492 
	C3238.613281,5265.509277 3266.182129,5202.131836 3292.573975,5138.274414 
	C3293.764893,5135.392090 3295.817139,5132.865723 3298.710693,5128.147949 
	C3327.526123,5196.128906 3354.908936,5262.402344 3382.506592,5329.133301 
	C3376.355957,5333.954590 3370.272217,5332.084473 3364.700195,5332.400391 
	C3359.418701,5332.700195 3354.106689,5332.465332 3347.732178,5332.465332 
	C3342.470215,5321.559570 3337.358887,5310.966309 3331.786621,5299.417969 
	C3311.698730,5298.574707 3291.792236,5299.122559 3270.116211,5299.150879 
M3301.385010,5264.226562 
	C3305.878174,5263.851074 3310.371094,5263.476074 3315.919678,5263.012207 
	C3312.274414,5246.900391 3306.095215,5233.032227 3297.370117,5217.978516 
	C3290.076172,5233.487793 3282.899658,5246.668945 3279.653809,5263.138672 
	C3286.480225,5263.545898 3292.203369,5263.887695 3301.385010,5264.226562 
z"/>
<path fill="#F9F9F9" opacity="1.000000" stroke="none" 
	d="
M1096.300903,5174.031250 
	C1099.903076,5159.043457 1107.004517,5148.275879 1117.591064,5139.361816 
	C1139.521729,5120.894043 1195.745361,5121.289551 1211.323364,5158.351562 
	C1203.834595,5165.971191 1193.694458,5168.932617 1183.326050,5173.486816 
	C1175.338989,5165.878906 1166.254272,5161.179199 1154.841675,5162.055176 
	C1141.142822,5163.105469 1132.295288,5169.730957 1130.487549,5181.229980 
	C1128.773926,5192.128906 1133.948242,5201.093262 1145.755249,5206.345215 
	C1153.638672,5209.852051 1161.883179,5212.543457 1169.940308,5215.666016 
	C1175.515259,5217.825684 1181.235596,5219.720215 1186.565674,5222.383789 
	C1210.498901,5234.342773 1222.978149,5259.972656 1217.576294,5285.518555 
	C1212.010864,5311.836914 1191.252319,5330.167480 1164.612305,5331.803711 
	C1153.312500,5332.498535 1141.945679,5332.520020 1131.236816,5327.786133 
	C1113.098999,5319.766602 1100.975952,5306.827148 1096.970215,5286.036133 
	C1107.275024,5281.933594 1117.309570,5279.387207 1127.697144,5280.165039 
	C1129.102417,5281.298340 1130.525513,5281.906250 1131.069580,5282.965820 
	C1138.574829,5297.584473 1151.616699,5298.304688 1165.416138,5296.454102 
	C1174.996582,5295.169434 1181.029541,5289.048340 1183.301392,5279.931641 
	C1185.552490,5270.898438 1183.312012,5262.618164 1175.795654,5256.629395 
	C1172.745972,5254.200195 1169.018311,5252.465332 1165.370483,5250.973145 
	C1156.759399,5247.451660 1147.999146,5244.296387 1139.319702,5240.939941 
	C1106.180664,5228.125000 1094.945190,5211.166504 1096.300903,5174.031250 
z"/>
<path fill="#F9F9F9" opacity="1.000000" stroke="none" 
	d="
M1822.407959,5166.332031 
	C1816.765381,5168.999512 1812.534058,5170.899414 1807.177734,5173.304688 
	C1804.790039,5171.657715 1802.102783,5169.988281 1799.618286,5168.057617 
	C1790.295410,5160.812988 1779.776245,5161.010742 1769.156494,5163.542480 
	C1759.675415,5165.803711 1754.574585,5172.859863 1753.133179,5182.003418 
	C1751.786499,5190.544922 1755.314941,5197.852051 1762.404419,5202.766113 
	C1766.162720,5205.372070 1770.663452,5206.994629 1774.971558,5208.701660 
	C1784.874512,5212.627930 1794.998535,5216.019531 1804.794189,5220.188477 
	C1832.378784,5231.928711 1845.919312,5257.441895 1840.345825,5286.520996 
	C1835.673096,5310.900391 1812.640747,5332.160156 1782.447510,5332.101074 
	C1751.078613,5332.039551 1730.893188,5319.238770 1720.925781,5291.260254 
	C1720.510132,5290.093750 1720.872681,5288.649414 1720.872681,5285.973633 
	C1729.988159,5281.655273 1740.049194,5279.903320 1749.862549,5279.897461 
	C1751.713257,5281.185059 1753.253052,5281.687500 1753.786987,5282.713379 
	C1761.300781,5297.155762 1774.141968,5298.469238 1788.098145,5296.538086 
	C1797.799316,5295.195801 1805.173828,5287.913086 1806.822266,5278.292969 
	C1808.430786,5268.905273 1805.195312,5260.996582 1797.498901,5255.602539 
	C1793.218628,5252.602539 1788.048218,5250.781738 1783.128906,5248.803223 
	C1772.014282,5244.333008 1760.437012,5240.849609 1749.714233,5235.603027 
	C1728.311523,5225.130371 1716.882568,5203.675293 1718.778076,5179.761719 
	C1720.628662,5156.417969 1735.947754,5136.342773 1758.995361,5130.295410 
	C1787.557007,5122.801270 1813.597290,5128.652832 1829.618652,5149.735840 
	C1831.516113,5152.232422 1832.584839,5155.358887 1834.385620,5158.872559 
	C1830.405640,5161.393066 1827.112305,5163.479004 1822.407959,5166.332031 
z"/>
<path fill="#F9F9F9" opacity="1.000000" stroke="none" 
	d="
M3680.640381,5330.334961 
	C3670.403320,5331.104004 3661.703125,5332.255371 3653.156982,5331.546387 
	C3627.631348,5329.428711 3609.185547,5312.306152 3603.926025,5286.052734 
	C3612.581787,5281.053223 3622.431641,5280.625000 3632.433105,5279.691895 
	C3633.963867,5280.856445 3636.075195,5281.698242 3636.936279,5283.238770 
	C3644.311768,5296.433594 3656.245850,5298.362793 3669.619629,5296.742676 
	C3680.108887,5295.473145 3686.879150,5289.459961 3689.219971,5279.657227 
	C3691.685059,5269.333496 3687.743408,5259.383301 3678.291504,5254.139160 
	C3673.099609,5251.258301 3667.286133,5249.489746 3661.733643,5247.268555 
	C3651.850830,5243.314453 3641.495850,5240.258789 3632.153809,5235.292969 
	C3610.750732,5223.915039 3599.875000,5205.197754 3601.520752,5181.234863 
	C3603.218262,5156.509277 3616.623535,5138.973145 3640.491211,5130.656250 
	C3671.009766,5120.022461 3700.435303,5130.421387 3716.882324,5157.862793 
	C3710.120850,5166.509766 3699.543945,5168.678711 3689.729248,5173.319824 
	C3681.383789,5166.159668 3672.384277,5161.156738 3660.869141,5162.058594 
	C3647.270020,5163.123535 3638.095947,5169.851074 3636.317139,5181.127930 
	C3634.616699,5191.906738 3639.933594,5201.157227 3651.561279,5206.314453 
	C3659.457520,5209.816406 3667.716553,5212.495605 3675.787109,5215.611328 
	C3681.370850,5217.766602 3687.152100,5219.575195 3692.425049,5222.339844 
	C3713.034912,5233.147949 3724.203125,5250.115234 3724.417236,5273.658691 
	C3724.631348,5297.191895 3713.828613,5314.347168 3693.376465,5325.529297 
	C3689.912109,5327.423340 3685.969482,5328.442383 3680.640381,5330.334961 
z"/>
<path fill="#FCFCFC" opacity="1.000000" stroke="none" 
	d="
M2120.089844,5127.707031 
	C2146.651367,5127.707031 2171.232666,5127.707031 2195.886963,5127.707031 
	C2201.315674,5138.982422 2198.258545,5149.242676 2198.711182,5159.388184 
	C2183.698975,5164.863281 2169.229980,5159.352051 2156.277344,5163.632812 
	C2151.449219,5169.253906 2153.061279,5175.500977 2153.041016,5181.285645 
	C2152.895508,5223.232910 2152.960693,5265.180664 2152.959229,5307.128418 
	C2152.958984,5314.416016 2152.959229,5321.703613 2152.959229,5329.264648 
	C2141.970947,5334.372559 2131.763184,5332.342285 2120.307129,5331.348145 
	C2119.864258,5324.657227 2119.160645,5318.853027 2119.147461,5313.047363 
	C2119.051758,5270.433594 2119.126709,5227.820312 2119.059082,5185.206543 
	C2119.048584,5178.643555 2118.583740,5172.081543 2118.314697,5165.142090 
	C2104.017822,5158.206055 2088.571289,5165.510254 2074.509277,5159.713379 
	C2072.154541,5149.739746 2072.570312,5140.082031 2074.182861,5129.813477 
	C2081.633057,5126.558105 2089.012939,5127.992676 2096.138428,5127.759277 
	C2103.454834,5127.519531 2110.785400,5127.706543 2120.089844,5127.707031 
z"/>
<path fill="#FFFFFE" opacity="1.000000" stroke="none" 
	d="
M1451.530762,5311.467285 
	C1451.696167,5250.920410 1451.853271,5192.321777 1452.092896,5133.724121 
	C1452.097778,5132.549805 1453.067749,5131.380371 1454.164185,5128.908691 
	C1463.124268,5127.010742 1472.743042,5127.462402 1483.494873,5128.805176 
	C1484.128784,5132.438965 1485.142578,5135.556641 1485.147461,5138.675293 
	C1485.240356,5199.281738 1485.233398,5259.888672 1485.165405,5320.495117 
	C1485.161743,5323.686523 1484.436035,5326.876953 1483.955444,5330.813477 
	C1473.543823,5333.141602 1463.907349,5332.695312 1452.842041,5331.189941 
	C1452.383545,5324.972168 1451.957520,5319.194336 1451.530762,5311.467285 
z"/>
<path fill="#D4D4D3" opacity="1.000000" stroke="none" 
	d="
M1102.290894,3979.887695 
	C1104.169067,3981.674805 1104.257568,3983.183350 1104.374634,3985.826172 
	C1076.045776,3991.867432 1042.167236,3993.884521 1025.853149,3991.637695 
	C1035.081909,3986.431396 1060.679688,3982.306641 1102.290894,3979.887695 
z"/>
<path fill="#A9A9A8" opacity="1.000000" stroke="none" 
	d="
M983.999634,3995.830078 
	C982.312744,3996.792725 980.728210,3998.123291 978.914062,3998.628174 
	C976.422729,3999.321289 973.765930,3999.569824 971.164978,3999.692871 
	C959.580750,4000.241943 947.991150,4000.678223 934.734375,4001.223877 
	C944.996948,3995.411377 958.596863,3992.988037 982.679688,3993.344482 
	C984.369934,3994.362549 983.999695,3995.830322 983.999634,3995.830078 
z"/>
<path fill="#D4D4D3" opacity="1.000000" stroke="none" 
	d="
M985.733948,3995.866211 
	C983.999695,3995.830322 984.369934,3994.362549 984.440186,3993.609863 
	C994.890015,3992.139404 1005.268555,3991.405029 1015.652649,3990.761963 
	C1016.106384,3990.733887 1016.611877,3991.542236 1017.093262,3991.960938 
	C1016.863647,3992.575684 1016.676270,3993.707031 1016.398132,3993.729980 
	C1006.760132,3994.518799 997.113586,3995.203125 985.733948,3995.866211 
z"/>
<path fill="#F9C420" opacity="1.000000" stroke="none" 
	d="
M3509.447266,3439.992676 
	C3510.072998,3438.776611 3511.812500,3437.369385 3514.713379,3435.898438 
	C3514.103271,3437.156738 3512.332031,3438.479248 3509.447266,3439.992676 
z"/>
<path fill="#727271" opacity="1.000000" stroke="none" 
	d="
M1168.481445,4767.084961 
	C1146.821777,4733.038086 1141.763062,4697.652832 1152.454468,4660.567383 
	C1167.875732,4607.075195 1217.037231,4567.466309 1278.690186,4569.313965 
	C1338.519287,4571.107422 1389.190308,4615.344238 1399.477295,4672.777344 
	C1409.791992,4730.365723 1380.871094,4787.024902 1328.559937,4811.712402 
	C1275.991821,4836.520996 1214.617188,4822.883789 1176.497314,4777.873535 
	C1173.921021,4774.832031 1171.669312,4771.515137 1168.481445,4767.084961 
z"/>
<path fill="#747472" opacity="1.000000" stroke="none" 
	d="
M3910.193115,4794.437012 
	C3883.514404,4815.629395 3854.354736,4824.811523 3821.812012,4823.941895 
	C3809.232422,4823.605469 3796.636230,4823.887695 3783.314209,4823.887695 
	C3782.339844,4818.952148 3780.960205,4815.203125 3780.954102,4811.452148 
	C3780.824951,4734.890137 3780.839844,4658.328125 3780.892090,4581.766113 
	C3780.894287,4578.532227 3781.529297,4575.297852 3781.969727,4571.110352 
	C3786.093750,4570.348145 3789.856201,4568.980469 3793.580811,4569.077148 
	C3812.178467,4569.560547 3831.066895,4568.570312 3849.300049,4571.518555 
	C3898.107422,4579.410156 3931.770508,4607.705566 3948.376709,4654.021973 
	C3965.028320,4700.464844 3955.639648,4743.137695 3924.054443,4780.883789 
	C3920.230713,4785.454102 3915.572266,4789.325684 3910.193115,4794.437012 
z"/>
<path fill="#777775" opacity="1.000000" stroke="none" 
	d="
M2920.345215,4720.393555 
	C2927.364258,4703.785156 2933.834961,4688.620605 2941.016357,4671.790527 
	C2943.635498,4674.702637 2945.725342,4676.121582 2946.543213,4678.073242 
	C2957.029297,4703.094727 2967.347412,4728.187012 2977.637207,4753.290527 
	C2978.101074,4754.421875 2977.893066,4755.829102 2977.996094,4757.107422 
	C2965.812500,4761.137207 2933.035156,4761.944824 2907.240479,4758.697754 
	C2907.840088,4754.929688 2907.847168,4750.977539 2909.143311,4747.506348 
	C2912.382568,4738.833496 2916.207275,4730.379883 2920.345215,4720.393555 
z"/>
<path fill="#777775" opacity="1.000000" stroke="none" 
	d="
M3299.655762,5264.227539 
	C3292.203369,5263.887695 3286.480225,5263.545898 3279.653809,5263.138672 
	C3282.899658,5246.668945 3290.076172,5233.487793 3297.370117,5217.978516 
	C3306.095215,5233.032227 3312.274414,5246.900391 3315.919678,5263.012207 
	C3310.371094,5263.476074 3305.878174,5263.851074 3299.655762,5264.227539 
z"/>
</svg>